{
  "accessors": [
    {
      "bufferView": 2,
      "componentType": 5126,
      "count": 65532,
      "max": [
        167.98368835449219,
        112.84798431396484,
        94.019454956054688
      ],
      "min": [
        -93.309722900390625,
        -97.164314270019531,
        -109.11540222167969
      ],
      "type": "VEC3"
    },
    {
      "bufferView": 2,
      "byteOffset": 786384,
      "componentType": 5126,
      "count": 65532,
      "max": [
        0.9999881386756897,
        0.9999237060546875,
        0.99999964237213135
      ],
      "min": [
        -0.99996364116668701,
        -0.99997496604919434,
        -0.9999995231628418
      ],
      "type": "VEC3"
    },
    {
      "bufferView": 1,
      "componentType": 5126,
      "count": 65532,
      "max": [
        0.6205589771270752,
        0.99527400732040405
      ],
      "min": [
        0.0047260001301765442,
        0.56564599275588989
      ],
      "type": "VEC2"
    },
    {
      "bufferView": 0,
      "componentType": 5125,
      "count": 376152,
      "max": [
        65531
      ],
      "min": [
        0
      ],
      "type": "SCALAR"
    },
    {
      "bufferView": 2,
      "byteOffset": 1572768,
      "componentType": 5126,
      "count": 65532,
      "max": [
        124.67329406738281,
        129.08949279785156,
        104.04080963134766
      ],
      "min": [
        -138.90719604492188,
        -78.676483154296875,
        -89.086898803710938
      ],
      "type": "VEC3"
    },
    {
      "bufferView": 2,
      "byteOffset": 2359152,
      "componentType": 5126,
      "count": 65532,
      "max": [
        0.99986249208450317,
        0.99989461898803711,
        1
      ],
      "min": [
        -0.99998599290847778,
        -0.99997538328170776,
        -0.99991136789321899
      ],
      "type": "VEC3"
    },
    {
      "bufferView": 1,
      "byteOffset": 524256,
      "componentType": 5126,
      "count": 65532,
      "max": [
        0.97251802682876587,
        0.99527400732040405
      ],
      "min": [
        0.30716800689697266,
        0.46941098570823669
      ],
      "type": "VEC2"
    },
    {
      "bufferView": 0,
      "byteOffset": 1504608,
      "componentType": 5125,
      "count": 366399,
      "max": [
        65531
      ],
      "min": [
        0
      ],
      "type": "SCALAR"
    },
    {
      "bufferView": 2,
      "byteOffset": 3145536,
      "componentType": 5126,
      "count": 65532,
      "max": [
        166.22067260742188,
        117.82057189941406,
        109.73017120361328
      ],
      "min": [
        -136.55014038085938,
        -97.532501220703125,
        -109.07178497314453
      ],
      "type": "VEC3"
    },
    {
      "bufferView": 2,
      "byteOffset": 3931920,
      "componentType": 5126,
      "count": 65532,
      "max": [
        0.99998557567596436,
        0.9999883770942688,
        0.9999924898147583
      ],
      "min": [
        -0.99998718500137329,
        -0.99999839067459106,
        -0.99999815225601196
      ],
      "type": "VEC3"
    },
    {
      "bufferView": 1,
      "byteOffset": 1048512,
      "componentType": 5126,
      "count": 65532,
      "max": [
        0.88182699680328369,
        0.86295598745346069
      ],
      "min": [
        0.080335997045040131,
        0.25372099876403809
      ],
      "type": "VEC2"
    },
    {
      "bufferView": 0,
      "byteOffset": 2970204,
      "componentType": 5125,
      "count": 364125,
      "max": [
        65531
      ],
      "min": [
        0
      ],
      "type": "SCALAR"
    },
    {
      "bufferView": 2,
      "byteOffset": 4718304,
      "componentType": 5126,
      "count": 65532,
      "max": [
        149.78536987304688,
        114.59173583984375,
        114.59552001953125
      ],
      "min": [
        -132.92350769042969,
        -148.03704833984375,
        -113.07696533203125
      ],
      "type": "VEC3"
    },
    {
      "bufferView": 2,
      "byteOffset": 5504688,
      "componentType": 5126,
      "count": 65532,
      "max": [
        0.99999994039535522,
        0.99999433755874634,
        0.99998968839645386
      ],
      "min": [
        -1,
        -0.99997663497924805,
        -1
      ],
      "type": "VEC3"
    },
    {
      "bufferView": 1,
      "byteOffset": 1572768,
      "componentType": 5126,
      "count": 65532,
      "max": [
        0.98879402875900269,
        0.93384099006652832
      ],
      "min": [
        0.10396499931812286,
        0.015848999843001366
      ],
      "type": "VEC2"
    },
    {
      "bufferView": 0,
      "byteOffset": 4426704,
      "componentType": 5125,
      "count": 361386,
      "max": [
        65531
      ],
      "min": [
        0
      ],
      "type": "SCALAR"
    },
    {
      "bufferView": 2,
      "byteOffset": 6291072,
      "componentType": 5126,
      "count": 65532,
      "max": [
        149.40443420410156,
        132.99855041503906,
        126.59812927246094
      ],
      "min": [
        -106.80754852294922,
        -146.75932312011719,
        -116.208251953125
      ],
      "type": "VEC3"
    },
    {
      "bufferView": 2,
      "byteOffset": 7077456,
      "componentType": 5126,
      "count": 65532,
      "max": [
        0.99997001886367798,
        0.9999079704284668,
        0.99998968839645386
      ],
      "min": [
        -0.99999076128005981,
        -0.99998873472213745,
        -0.99949514865875244
      ],
      "type": "VEC3"
    },
    {
      "bufferView": 1,
      "byteOffset": 2097024,
      "componentType": 5126,
      "count": 65532,
      "max": [
        0.99185597896575928,
        0.90548700094223022
      ],
      "min": [
        0.0047260001301765442,
        0.012190000154078007
      ],
      "type": "VEC2"
    },
    {
      "bufferView": 0,
      "byteOffset": 5872248,
      "componentType": 5125,
      "count": 360804,
      "max": [
        65531
      ],
      "min": [
        0
      ],
      "type": "SCALAR"
    },
    {
      "bufferView": 2,
      "byteOffset": 7863840,
      "componentType": 5126,
      "count": 65532,
      "max": [
        156.77290344238281,
        131.00411987304688,
        126.76451873779297
      ],
      "min": [
        -134.69090270996094,
        -153.72906494140625,
        -111.9073486328125
      ],
      "type": "VEC3"
    },
    {
      "bufferView": 2,
      "byteOffset": 8650224,
      "componentType": 5126,
      "count": 65532,
      "max": [
        0.99998700618743896,
        1,
        0.99999004602432251
      ],
      "min": [
        -0.99999266862869263,
        -0.99998873472213745,
        -0.99999988079071045
      ],
      "type": "VEC3"
    },
    {
      "bufferView": 1,
      "byteOffset": 2621280,
      "componentType": 5126,
      "count": 65532,
      "max": [
        0.97549301385879517,
        0.76844197511672974
      ],
      "min": [
        0.014177000150084496,
        0.0041229999624192715
      ],
      "type": "VEC2"
    },
    {
      "bufferView": 0,
      "byteOffset": 7315464,
      "componentType": 5125,
      "count": 350220,
      "max": [
        65531
      ],
      "min": [
        0
      ],
      "type": "SCALAR"
    },
    {
      "bufferView": 2,
      "byteOffset": 9436608,
      "componentType": 5126,
      "count": 65532,
      "max": [
        167.57809448242188,
        126.29173278808594,
        126.41117858886719
      ],
      "min": [
        -137.55722045898438,
        -153.77557373046875,
        -116.13132476806641
      ],
      "type": "VEC3"
    },
    {
      "bufferView": 2,
      "byteOffset": 10222992,
      "componentType": 5126,
      "count": 65532,
      "max": [
        1,
        1,
        1
      ],
      "min": [
        -0.99998682737350464,
        -1,
        -1
      ],
      "type": "VEC3"
    },
    {
      "bufferView": 1,
      "byteOffset": 3145536,
      "componentType": 5126,
      "count": 65532,
      "max": [
        0.97811901569366455,
        0.78261899948120117
      ],
      "min": [
        0.0047260001301765442,
        0.002988999942317605
      ],
      "type": "VEC2"
    },
    {
      "bufferView": 0,
      "byteOffset": 8716344,
      "componentType": 5125,
      "count": 332937,
      "max": [
        65531
      ],
      "min": [
        0
      ],
      "type": "SCALAR"
    },
    {
      "bufferView": 2,
      "byteOffset": 11009376,
      "componentType": 5126,
      "count": 52739,
      "max": [
        165.60610961914062,
        130.2080078125,
        126.44415283203125
      ],
      "min": [
        -138.930908203125,
        -153.42208862304688,
        -114.70709228515625
      ],
      "type": "VEC3"
    },
    {
      "bufferView": 2,
      "byteOffset": 11642244,
      "componentType": 5126,
      "count": 52739,
      "max": [
        0.99999988079071045,
        1,
        1
      ],
      "min": [
        -1,
        -1,
        -1
      ],
      "type": "VEC3"
    },
    {
      "bufferView": 1,
      "byteOffset": 3669792,
      "componentType": 5126,
      "count": 52739,
      "max": [
        0.99228799343109131,
        0.8535040020942688
      ],
      "min": [
        0.0047260001301765442,
        0.0031049998942762613
      ],
      "type": "VEC2"
    },
    {
      "bufferView": 0,
      "byteOffset": 10048092,
      "componentType": 5125,
      "count": 187977,
      "max": [
        52738
      ],
      "min": [
        0
      ],
      "type": "SCALAR"
    }
  ],
  "asset": {
    "extras": {
      "author": "GoMeasure3D (https://sketchfab.com/gomeasure3d)",
      "license": "CC-BY-4.0 (http://creativecommons.org/licenses/by/4.0/)",
      "source": "https://sketchfab.com/3d-models/crank-housing-3d-scan-ad033dc1ca224be39dbe2f7600446983",
      "title": "Crank Housing 3D Scan"
    },
    "generator": "Sketchfab-9.17.1",
    "version": "2.0"
  },
  "bufferViews": [
    {
      "buffer": 0,
      "byteLength": 10800000,
      "byteOffset": 0,
      "name": "floatBufferViews",
      "target": 34963
    },
    {
      "buffer": 0,
      "byteLength": 4091704,
      "byteOffset": 10800000,
      "byteStride": 8,
      "name": "floatBufferViews",
      "target": 34962
    },
    {
      "buffer": 0,
      "byteLength": 12275112,
      "byteOffset": 14891704,
      "byteStride": 12,
      "name": "floatBufferViews",
      "target": 34962
    }
  ],
  "buffers": [
    {
      "byteLength": 27166816,
      "uri": "scene.bin"
    }
  ],
  "images": [
    {
      "uri": "textures/material_0_baseColor.jpeg"
    }
  ],
  "materials": [
    {
      "doubleSided": true,
      "emissiveFactor": [
        0,
        0,
        0
      ],
      "name": "material_0",
      "pbrMetallicRoughness": {
        "baseColorFactor": [
          1,
          1,
          1,
          1
        ],
        "baseColorTexture": {
          "index": 0,
          "texCoord": 0
        },
        "metallicFactor": 0,
        "roughnessFactor": 0.43765867480965093
      }
    }
  ],
  "meshes": [
    {
      "primitives": [
        {
          "attributes": {
            "NORMAL": 1,
            "POSITION": 0,
            "TEXCOORD_0": 2
          },
          "indices": 3,
          "material": 0,
          "mode": 4
        }
      ]
    },
    {
      "primitives": [
        {
          "attributes": {
            "NORMAL": 5,
            "POSITION": 4,
            "TEXCOORD_0": 6
          },
          "indices": 7,
          "material": 0,
          "mode": 4
        }
      ]
    },
    {
      "primitives": [
        {
          "attributes": {
            "NORMAL": 9,
            "POSITION": 8,
            "TEXCOORD_0": 10
          },
          "indices": 11,
          "material": 0,
          "mode": 4
        }
      ]
    },
    {
      "primitives": [
        {
          "attributes": {
            "NORMAL": 13,
            "POSITION": 12,
            "TEXCOORD_0": 14
          },
          "indices": 15,
          "material": 0,
          "mode": 4
        }
      ]
    },
    {
      "primitives": [
        {
          "attributes": {
            "NORMAL": 17,
            "POSITION": 16,
            "TEXCOORD_0": 18
          },
          "indices": 19,
          "material": 0,
          "mode": 4
        }
      ]
    },
    {
      "primitives": [
        {
          "attributes": {
            "NORMAL": 21,
            "POSITION": 20,
            "TEXCOORD_0": 22
          },
          "indices": 23,
          "material": 0,
          "mode": 4
        }
      ]
    },
    {
      "primitives": [
        {
          "attributes": {
            "NORMAL": 25,
            "POSITION": 24,
            "TEXCOORD_0": 26
          },
          "indices": 27,
          "material": 0,
          "mode": 4
        }
      ]
    },
    {
      "primitives": [
        {
          "attributes": {
            "NORMAL": 29,
            "POSITION": 28,
            "TEXCOORD_0": 30
          },
          "indices": 31,
          "material": 0,
          "mode": 4
        }
      ]
    }
  ],
  "nodes": [
    {
      "children": [
        1
      ],
      "name": "RootNode (gltf orientation matrix)",
      "rotation": [
        -0.70710678118654746,
        -0,
        -0,
        0.70710678118654757
      ]
    },
    {
      "children": [
        2
      ],
      "matrix": [
        0.98851543664932251,
        -0.031419575214385986,
        0.14781744778156281,
        0,
        0.11310512572526932,
        -0.49487856030464172,
        -0.86156976222991943,
        0,
        0.10022183507680893,
        0.86839395761489868,
        -0.48564139008522034,
        0,
        0.81285881996154785,
        -19.657690048217773,
        -3.256166934967041,
        1
      ],
      "name": "RootNode (model correction matrix)"
    },
    {
      "children": [
        3,
        4,
        5,
        6,
        7,
        8,
        9,
        10
      ],
      "name": "Crank Housing Space Spider Scan.obj.cleaner.materialmerger.gles"
    },
    {
      "mesh": 0,
      "name": ""
    },
    {
      "mesh": 1,
      "name": ""
    },
    {
      "mesh": 2,
      "name": ""
    },
    {
      "mesh": 3,
      "name": ""
    },
    {
      "mesh": 4,
      "name": ""
    },
    {
      "mesh": 5,
      "name": ""
    },
    {
      "mesh": 6,
      "name": ""
    },
    {
      "mesh": 7,
      "name": ""
    }
  ],
  "samplers": [
    {
      "magFilter": 9729,
      "minFilter": 9987,
      "wrapS": 10497,
      "wrapT": 10497
    }
  ],
  "scene": 0,
  "scenes": [
    {
      "name": "OSG_Scene",
      "nodes": [
        0
      ]
    }
  ],
  "textures": [
    {
      "sampler": 0,
      "source": 0
    }
  ]
}

